ply
format ascii 1.0
comment VCGLIB generated
element vertex 384
property float x
property float y
property float z
element face 188
property list uchar int vertex_indices
end_header
-2.495557 2.174601 -0.989377 
-2.495557 2.210031 -0.989377 
-2.526557 2.210031 -0.989377 
-2.526557 2.174601 -0.989377 
-2.495557 2.210031 -1.813807 
-2.495557 2.174601 -1.813807 
-2.526557 2.174601 -1.813807 
-2.526557 2.210031 -1.813807 
-2.528557 2.210031 -0.991377 
-2.528557 2.210031 -1.811807 
-2.528557 2.174601 -1.811807 
-2.528557 2.174601 -0.991377 
-2.495557 2.172601 -1.811807 
-2.495557 2.172601 -0.991377 
-2.526557 2.172601 -0.991377 
-2.526557 2.172601 -1.811807 
-2.495557 2.212031 -0.991377 
-2.495557 2.212031 -1.811807 
-2.526557 2.212031 -1.811807 
-2.526557 2.212031 -0.991377 
-2.495557 2.172601 -0.991377 
-2.494558 2.172868 -0.991377 
-2.4946 2.173127 -0.99042 
-2.495557 2.172868 -0.990378 
-2.494558 2.172868 -0.991377 
-2.493824 2.173602 -0.991377 
-2.494083 2.173644 -0.99042 
-2.4946 2.173127 -0.99042 
-2.493557 2.174601 -0.991377 
-2.493824 2.174601 -0.990378 
-2.494083 2.173644 -0.99042 
-2.493824 2.173602 -0.991377 
-2.493824 2.174601 -0.990378 
-2.494558 2.174601 -0.989644 
-2.4946 2.173644 -0.989904 
-2.494083 2.173644 -0.99042 
-2.495557 2.174601 -0.989377 
-2.495557 2.173602 -0.989644 
-2.4946 2.173644 -0.989904 
-2.494558 2.174601 -0.989644 
-2.495557 2.173602 -0.989644 
-2.495557 2.172868 -0.990378 
-2.4946 2.173127 -0.99042 
-2.4946 2.173644 -0.989904 
-2.4946 2.173127 -0.99042 
-2.494083 2.173644 -0.99042 
-2.4946 2.173644 -0.989904 
-2.495557 2.172601 -1.811807 
-2.495557 2.172868 -1.812806 
-2.4946 2.173127 -1.812764 
-2.494558 2.172868 -1.811807 
-2.495557 2.172868 -1.812806 
-2.495557 2.173602 -1.81354 
-2.4946 2.173644 -1.81328 
-2.4946 2.173127 -1.812764 
-2.495557 2.174601 -1.813807 
-2.494558 2.174601 -1.81354 
-2.4946 2.173644 -1.81328 
-2.495557 2.173602 -1.81354 
-2.494558 2.174601 -1.81354 
-2.493824 2.174601 -1.812806 
-2.494083 2.173644 -1.812764 
-2.4946 2.173644 -1.81328 
-2.493557 2.174601 -1.811807 
-2.493824 2.173602 -1.811807 
-2.494083 2.173644 -1.812764 
-2.493824 2.174601 -1.812806 
-2.493824 2.173602 -1.811807 
-2.494558 2.172868 -1.811807 
-2.4946 2.173127 -1.812764 
-2.494083 2.173644 -1.812764 
-2.4946 2.173127 -1.812764 
-2.4946 2.173644 -1.81328 
-2.494083 2.173644 -1.812764 
-2.495557 2.212031 -0.991377 
-2.495557 2.211764 -0.990378 
-2.4946 2.211504 -0.99042 
-2.494558 2.211764 -0.991377 
-2.495557 2.211764 -0.990378 
-2.495557 2.21103 -0.989644 
-2.4946 2.210988 -0.989903 
-2.4946 2.211504 -0.99042 
-2.495557 2.210031 -0.989377 
-2.494558 2.210031 -0.989644 
-2.4946 2.210988 -0.989903 
-2.495557 2.21103 -0.989644 
-2.494558 2.210031 -0.989644 
-2.493824 2.210031 -0.990378 
-2.494083 2.210988 -0.99042 
-2.4946 2.210988 -0.989903 
-2.493557 2.210031 -0.991377 
-2.493824 2.21103 -0.991377 
-2.494083 2.210988 -0.99042 
-2.493824 2.210031 -0.990378 
-2.493824 2.21103 -0.991377 
-2.494558 2.211764 -0.991377 
-2.4946 2.211504 -0.99042 
-2.494083 2.210988 -0.99042 
-2.4946 2.211504 -0.99042 
-2.4946 2.210988 -0.989903 
-2.494083 2.210988 -0.99042 
-2.495557 2.212031 -1.811807 
-2.494558 2.211764 -1.811807 
-2.4946 2.211504 -1.812764 
-2.495557 2.211764 -1.812806 
-2.494558 2.211764 -1.811807 
-2.493824 2.21103 -1.811807 
-2.494083 2.210988 -1.812764 
-2.4946 2.211504 -1.812764 
-2.493557 2.210031 -1.811807 
-2.493824 2.210031 -1.812806 
-2.494083 2.210988 -1.812764 
-2.493824 2.21103 -1.811807 
-2.493824 2.210031 -1.812806 
-2.494558 2.210031 -1.81354 
-2.4946 2.210988 -1.81328 
-2.494083 2.210988 -1.812764 
-2.495557 2.210031 -1.813807 
-2.495557 2.21103 -1.81354 
-2.4946 2.210988 -1.81328 
-2.494558 2.210031 -1.81354 
-2.495557 2.21103 -1.81354 
-2.495557 2.211764 -1.812806 
-2.4946 2.211504 -1.812764 
-2.4946 2.210988 -1.81328 
-2.4946 2.211504 -1.812764 
-2.494083 2.210988 -1.812764 
-2.4946 2.210988 -1.81328 
-2.526557 2.172601 -0.991377 
-2.526557 2.172868 -0.990378 
-2.527513 2.173127 -0.99042 
-2.527555 2.172868 -0.991377 
-2.526557 2.172868 -0.990378 
-2.526557 2.173602 -0.989644 
-2.527513 2.173644 -0.989903 
-2.527513 2.173127 -0.99042 
-2.526557 2.174601 -0.989377 
-2.527555 2.174601 -0.989644 
-2.527513 2.173644 -0.989903 
-2.526557 2.173602 -0.989644 
-2.527555 2.174601 -0.989644 
-2.52829 2.174601 -0.990378 
-2.52803 2.173644 -0.99042 
-2.527513 2.173644 -0.989903 
-2.528557 2.174601 -0.991377 
-2.52829 2.173602 -0.991377 
-2.52803 2.173644 -0.99042 
-2.52829 2.174601 -0.990378 
-2.52829 2.173602 -0.991377 
-2.527555 2.172868 -0.991377 
-2.527513 2.173127 -0.99042 
-2.52803 2.173644 -0.99042 
-2.527513 2.173127 -0.99042 
-2.527513 2.173644 -0.989903 
-2.52803 2.173644 -0.99042 
-2.526557 2.172601 -1.811807 
-2.527555 2.172868 -1.811807 
-2.527513 2.173127 -1.812764 
-2.526557 2.172868 -1.812806 
-2.527555 2.172868 -1.811807 
-2.52829 2.173602 -1.811807 
-2.52803 2.173644 -1.812764 
-2.527513 2.173127 -1.812764 
-2.528557 2.174601 -1.811807 
-2.52829 2.174601 -1.812806 
-2.52803 2.173644 -1.812764 
-2.52829 2.173602 -1.811807 
-2.52829 2.174601 -1.812806 
-2.527555 2.174601 -1.81354 
-2.527513 2.173644 -1.81328 
-2.52803 2.173644 -1.812764 
-2.526557 2.174601 -1.813807 
-2.526557 2.173602 -1.81354 
-2.527513 2.173644 -1.81328 
-2.527555 2.174601 -1.81354 
-2.526557 2.173602 -1.81354 
-2.526557 2.172868 -1.812806 
-2.527513 2.173127 -1.812764 
-2.527513 2.173644 -1.81328 
-2.527513 2.173127 -1.812764 
-2.52803 2.173644 -1.812764 
-2.527513 2.173644 -1.81328 
-2.526557 2.212031 -0.991377 
-2.527555 2.211764 -0.991377 
-2.527513 2.211504 -0.99042 
-2.526557 2.211764 -0.990378 
-2.527555 2.211764 -0.991377 
-2.52829 2.21103 -0.991377 
-2.52803 2.210988 -0.99042 
-2.527513 2.211504 -0.99042 
-2.528557 2.210031 -0.991377 
-2.52829 2.210031 -0.990378 
-2.52803 2.210988 -0.99042 
-2.52829 2.21103 -0.991377 
-2.52829 2.210031 -0.990378 
-2.527555 2.210031 -0.989644 
-2.527513 2.210988 -0.989904 
-2.52803 2.210988 -0.99042 
-2.526557 2.210031 -0.989377 
-2.526557 2.21103 -0.989644 
-2.527513 2.210988 -0.989904 
-2.527555 2.210031 -0.989644 
-2.526557 2.21103 -0.989644 
-2.526557 2.211764 -0.990378 
-2.527513 2.211504 -0.99042 
-2.527513 2.210988 -0.989904 
-2.527513 2.211504 -0.99042 
-2.52803 2.210988 -0.99042 
-2.527513 2.210988 -0.989904 
-2.526557 2.212031 -1.811807 
-2.526557 2.211764 -1.812806 
-2.527513 2.211504 -1.812764 
-2.527555 2.211764 -1.811807 
-2.526557 2.211764 -1.812806 
-2.526557 2.21103 -1.81354 
-2.527513 2.210988 -1.81328 
-2.527513 2.211504 -1.812764 
-2.526557 2.210031 -1.813807 
-2.527555 2.210031 -1.81354 
-2.527513 2.210988 -1.81328 
-2.526557 2.21103 -1.81354 
-2.527555 2.210031 -1.81354 
-2.52829 2.210031 -1.812806 
-2.52803 2.210988 -1.812764 
-2.527513 2.210988 -1.81328 
-2.528557 2.210031 -1.811807 
-2.52829 2.21103 -1.811807 
-2.52803 2.210988 -1.812764 
-2.52829 2.210031 -1.812806 
-2.52829 2.21103 -1.811807 
-2.527555 2.211764 -1.811807 
-2.527513 2.211504 -1.812764 
-2.52803 2.210988 -1.812764 
-2.527513 2.211504 -1.812764 
-2.527513 2.210988 -1.81328 
-2.52803 2.210988 -1.812764 
-2.495557 2.172601 -0.991377 
-2.495557 2.172601 -1.811807 
-2.494558 2.172868 -1.811807 
-2.494558 2.172868 -0.991377 
-2.494558 2.172868 -0.991377 
-2.494558 2.172868 -1.811807 
-2.493824 2.173602 -1.811807 
-2.493824 2.173602 -0.991377 
-2.493824 2.173602 -0.991377 
-2.493824 2.173602 -1.811807 
-2.493557 2.174601 -1.811807 
-2.493557 2.174601 -0.991377 
-2.493557 2.210031 -0.991377 
-2.493557 2.210031 -1.811807 
-2.493824 2.21103 -1.811807 
-2.493824 2.21103 -0.991377 
-2.493824 2.21103 -0.991377 
-2.493824 2.21103 -1.811807 
-2.494558 2.211764 -1.811807 
-2.494558 2.211764 -0.991377 
-2.494558 2.211764 -0.991377 
-2.494558 2.211764 -1.811807 
-2.495557 2.212031 -1.811807 
-2.495557 2.212031 -0.991377 
-2.495557 2.210031 -0.989377 
-2.495557 2.174601 -0.989377 
-2.494558 2.174601 -0.989644 
-2.494558 2.210031 -0.989644 
-2.494558 2.210031 -0.989644 
-2.494558 2.174601 -0.989644 
-2.493824 2.174601 -0.990378 
-2.493824 2.210031 -0.990378 
-2.493824 2.210031 -0.990378 
-2.493824 2.174601 -0.990378 
-2.493557 2.174601 -0.991377 
-2.493557 2.210031 -0.991377 
-2.495557 2.174601 -1.813807 
-2.495557 2.210031 -1.813807 
-2.494558 2.210031 -1.81354 
-2.494558 2.174601 -1.81354 
-2.494558 2.174601 -1.81354 
-2.494558 2.210031 -1.81354 
-2.493824 2.210031 -1.812806 
-2.493824 2.174601 -1.812806 
-2.493824 2.174601 -1.812806 
-2.493824 2.210031 -1.812806 
-2.493557 2.210031 -1.811807 
-2.493557 2.174601 -1.811807 
-2.528557 2.174601 -0.991377 
-2.528557 2.174601 -1.811807 
-2.52829 2.173602 -1.811807 
-2.52829 2.173602 -0.991377 
-2.52829 2.173602 -0.991377 
-2.52829 2.173602 -1.811807 
-2.527555 2.172868 -1.811807 
-2.527555 2.172868 -0.991377 
-2.527555 2.172868 -0.991377 
-2.527555 2.172868 -1.811807 
-2.526557 2.172601 -1.811807 
-2.526557 2.172601 -0.991377 
-2.526557 2.212031 -0.991377 
-2.526557 2.212031 -1.811807 
-2.527555 2.211764 -1.811807 
-2.527555 2.211764 -0.991377 
-2.527555 2.211764 -0.991377 
-2.527555 2.211764 -1.811807 
-2.52829 2.21103 -1.811807 
-2.52829 2.21103 -0.991377 
-2.52829 2.21103 -0.991377 
-2.52829 2.21103 -1.811807 
-2.528557 2.210031 -1.811807 
-2.528557 2.210031 -0.991377 
-2.528557 2.210031 -0.991377 
-2.528557 2.174601 -0.991377 
-2.52829 2.174601 -0.990378 
-2.52829 2.210031 -0.990378 
-2.52829 2.210031 -0.990378 
-2.52829 2.174601 -0.990378 
-2.527555 2.174601 -0.989644 
-2.527555 2.210031 -0.989644 
-2.527555 2.210031 -0.989644 
-2.527555 2.174601 -0.989644 
-2.526557 2.174601 -0.989377 
-2.526557 2.210031 -0.989377 
-2.528557 2.174601 -1.811807 
-2.528557 2.210031 -1.811807 
-2.52829 2.210031 -1.812806 
-2.52829 2.174601 -1.812806 
-2.52829 2.174601 -1.812806 
-2.52829 2.210031 -1.812806 
-2.527555 2.210031 -1.81354 
-2.527555 2.174601 -1.81354 
-2.527555 2.174601 -1.81354 
-2.527555 2.210031 -1.81354 
-2.526557 2.210031 -1.813807 
-2.526557 2.174601 -1.813807 
-2.495557 2.174601 -0.989377 
-2.526557 2.174601 -0.989377 
-2.526557 2.173602 -0.989644 
-2.495557 2.173602 -0.989644 
-2.495557 2.173602 -0.989644 
-2.526557 2.173602 -0.989644 
-2.526557 2.172868 -0.990378 
-2.495557 2.172868 -0.990378 
-2.495557 2.172868 -0.990378 
-2.526557 2.172868 -0.990378 
-2.526557 2.172601 -0.991377 
-2.495557 2.172601 -0.991377 
-2.495557 2.172601 -1.811807 
-2.526557 2.172601 -1.811807 
-2.526557 2.172868 -1.812806 
-2.495557 2.172868 -1.812806 
-2.495557 2.172868 -1.812806 
-2.526557 2.172868 -1.812806 
-2.526557 2.173602 -1.81354 
-2.495557 2.173602 -1.81354 
-2.495557 2.173602 -1.81354 
-2.526557 2.173602 -1.81354 
-2.526557 2.174601 -1.813807 
-2.495557 2.174601 -1.813807 
-2.495557 2.212031 -0.991377 
-2.526557 2.212031 -0.991377 
-2.526557 2.211764 -0.990378 
-2.495557 2.211764 -0.990378 
-2.495557 2.211764 -0.990378 
-2.526557 2.211764 -0.990378 
-2.526557 2.21103 -0.989644 
-2.495557 2.21103 -0.989644 
-2.495557 2.21103 -0.989644 
-2.526557 2.21103 -0.989644 
-2.526557 2.210031 -0.989377 
-2.495557 2.210031 -0.989377 
-2.495557 2.210031 -1.813807 
-2.526557 2.210031 -1.813807 
-2.526557 2.21103 -1.81354 
-2.495557 2.21103 -1.81354 
-2.495557 2.21103 -1.81354 
-2.526557 2.21103 -1.81354 
-2.526557 2.211764 -1.812806 
-2.495557 2.211764 -1.812806 
-2.495557 2.211764 -1.812806 
-2.526557 2.211764 -1.812806 
-2.526557 2.212031 -1.811807 
-2.495557 2.212031 -1.811807 
-2.493557 2.174601 -0.991377 
-2.493557 2.174601 -1.811807 
-2.493557 2.210031 -1.811807 
-2.493557 2.210031 -0.991377 
3 0 1 2 
3 0 2 3 
3 4 5 6 
3 4 6 7 
3 8 9 10 
3 8 10 11 
3 12 13 14 
3 12 14 15 
3 16 17 18 
3 16 18 19 
3 20 21 22 
3 20 22 23 
3 24 25 26 
3 24 26 27 
3 28 29 30 
3 28 30 31 
3 32 33 34 
3 32 34 35 
3 36 37 38 
3 36 38 39 
3 40 41 42 
3 40 42 43 
3 44 45 46 
3 47 48 49 
3 47 49 50 
3 51 52 53 
3 51 53 54 
3 55 56 57 
3 55 57 58 
3 59 60 61 
3 59 61 62 
3 63 64 65 
3 63 65 66 
3 67 68 69 
3 67 69 70 
3 71 72 73 
3 74 75 76 
3 74 76 77 
3 78 79 80 
3 78 80 81 
3 82 83 84 
3 82 84 85 
3 86 87 88 
3 86 88 89 
3 90 91 92 
3 90 92 93 
3 94 95 96 
3 94 96 97 
3 98 99 100 
3 101 102 103 
3 101 103 104 
3 105 106 107 
3 105 107 108 
3 109 110 111 
3 109 111 112 
3 113 114 115 
3 113 115 116 
3 117 118 119 
3 117 119 120 
3 121 122 123 
3 121 123 124 
3 125 126 127 
3 128 129 130 
3 128 130 131 
3 132 133 134 
3 132 134 135 
3 136 137 138 
3 136 138 139 
3 140 141 142 
3 140 142 143 
3 144 145 146 
3 144 146 147 
3 148 149 150 
3 148 150 151 
3 152 153 154 
3 155 156 157 
3 155 157 158 
3 159 160 161 
3 159 161 162 
3 163 164 165 
3 163 165 166 
3 167 168 169 
3 167 169 170 
3 171 172 173 
3 171 173 174 
3 175 176 177 
3 175 177 178 
3 179 180 181 
3 182 183 184 
3 182 184 185 
3 186 187 188 
3 186 188 189 
3 190 191 192 
3 190 192 193 
3 194 195 196 
3 194 196 197 
3 198 199 200 
3 198 200 201 
3 202 203 204 
3 202 204 205 
3 206 207 208 
3 209 210 211 
3 209 211 212 
3 213 214 215 
3 213 215 216 
3 217 218 219 
3 217 219 220 
3 221 222 223 
3 221 223 224 
3 225 226 227 
3 225 227 228 
3 229 230 231 
3 229 231 232 
3 233 234 235 
3 236 237 238 
3 236 238 239 
3 240 241 242 
3 240 242 243 
3 244 245 246 
3 244 246 247 
3 248 249 250 
3 248 250 251 
3 252 253 254 
3 252 254 255 
3 256 257 258 
3 256 258 259 
3 260 261 262 
3 260 262 263 
3 264 265 266 
3 264 266 267 
3 268 269 270 
3 268 270 271 
3 272 273 274 
3 272 274 275 
3 276 277 278 
3 276 278 279 
3 280 281 282 
3 280 282 283 
3 284 285 286 
3 284 286 287 
3 288 289 290 
3 288 290 291 
3 292 293 294 
3 292 294 295 
3 296 297 298 
3 296 298 299 
3 300 301 302 
3 300 302 303 
3 304 305 306 
3 304 306 307 
3 308 309 310 
3 308 310 311 
3 312 313 314 
3 312 314 315 
3 316 317 318 
3 316 318 319 
3 320 321 322 
3 320 322 323 
3 324 325 326 
3 324 326 327 
3 328 329 330 
3 328 330 331 
3 332 333 334 
3 332 334 335 
3 336 337 338 
3 336 338 339 
3 340 341 342 
3 340 342 343 
3 344 345 346 
3 344 346 347 
3 348 349 350 
3 348 350 351 
3 352 353 354 
3 352 354 355 
3 356 357 358 
3 356 358 359 
3 360 361 362 
3 360 362 363 
3 364 365 366 
3 364 366 367 
3 368 369 370 
3 368 370 371 
3 372 373 374 
3 372 374 375 
3 376 377 378 
3 376 378 379 
3 380 381 382 
3 380 382 383 
